<svg width="529" height="227" viewBox="0 0 529 227" fill="none" xmlns="http://www.w3.org/2000/svg">
<path d="M169.84 84.92C169.84 38.021 131.82 0 84.92 0C38.021 0 0 38.021 0 84.92C0 131.82 38.021 169.84 84.92 169.84C131.82 169.84 169.84 131.82 169.84 84.92Z" transform="translate(0 226.453) scale(1.33333 -1.33333)" fill="black"/>
<path d="M17.333 8.666C17.333 3.88 13.453 0 8.667 0C3.881 0 0 3.88 0 8.666C0 13.453 3.881 17.333 8.667 17.333C13.453 17.333 17.333 13.453 17.333 8.666Z" transform="translate(505.369 129.404) scale(1.33333 -1.33333)" fill="black"/>
<path d="M32.447 7.097V0H18.545C15.897 0 13.872 0.137 12.47 0.41C7.584 1.364 4.108 4.099 2.045 8.616C0.680998 11.634 0 15.372 0 19.83C0 25.185 1.042 29.546 3.125 32.914C4.624 35.328 6.635 37.091 9.156 38.201C11.676 39.31 14.943 39.866 18.954 39.866H32.447V32.769H19.918C16.121 32.769 13.337 31.756 11.565 29.731C10.105 28.057 9.375 25.019 9.375 20.619C9.375 14.74 10.513 10.874 12.792 9.025C14.388 7.74 16.871 7.097 20.239 7.097H32.447Z" transform="translate(234.271 97.5109) scale(1.33333 -1.33333)" fill="black"/>
<path d="M21.407 30.286L15.713 16.326H27.073L21.407 30.286ZM0 0L16.501 39.865H26.284L42.785 0H32.826L28.971 9.229H13.814L9.959 0H0Z" transform="translate(281.349 97.5104) scale(1.33333 -1.33333)" fill="black"/>
<path d="M8.47 32.769V7.097H16.91C20.61 7.097 23.179 7.925 24.62 9.58C25.496 10.592 26.202 12.038 26.738 13.916C27.273 15.795 27.541 17.796 27.541 19.918C27.541 22.254 27.224 24.406 26.592 26.373C25.958 28.339 25.116 29.799 24.066 30.753C22.547 32.097 20.161 32.769 16.91 32.769H8.47ZM0 39.866H16.91C21.135 39.866 24.406 39.447 26.723 38.61C30.987 37.072 33.829 34.229 35.251 30.081C36.341 26.908 36.886 23.5 36.886 19.86C36.886 16.258 36.37 12.861 35.338 9.667C34.307 6.397 32.583 3.992 30.169 2.454C28.651 1.48 26.991 0.829001 25.19 0.498001C23.389 0.166001 20.629 0 16.91 0H0V39.866Z" transform="translate(344.12 97.511) scale(1.33333 -1.33333)" fill="black"/>
<path d="M32.067 39.865V32.768H20.998C18.097 32.768 15.989 32.568 14.675 32.17C13.361 31.77 12.265 30.996 11.389 29.847C10.805 29.068 10.406 28.28 10.192 27.482C9.978 26.683 9.793 25.321 9.637 23.393H32.067V16.297H9.637C9.929 12.85 10.931 10.456 12.645 9.112C14.359 7.768 17.269 7.096 21.378 7.096H32.067V0H20.998C18 0 15.362 0.185 13.084 0.555C9.501 1.139 6.648 2.706 4.526 5.257C1.508 8.917 0 13.882 0 20.151C0 27.102 2.131 32.505 6.395 36.36C7.856 37.665 9.413 38.575 11.068 39.091C12.723 39.606 14.943 39.865 17.727 39.865H32.067Z" transform="translate(398.403 97.5103) scale(1.33333 -1.33333)" fill="black"/>
<path d="M1.898 0V7.097H20.093C23.013 7.097 24.96 7.389 25.934 7.974C27.335 8.811 28.037 10.066 28.037 11.74C28.037 13.668 27.219 15.08 25.584 15.976C24.649 16.481 23.16 16.734 21.115 16.734H13.726C9.209 16.734 5.958 17.553 3.972 19.187C2.725 20.22 1.752 21.52 1.051 23.087C0.35 24.654 0 26.323 0 28.096C0 30.899 0.818 33.459 2.454 35.776C4.049 38.015 6.61 39.319 10.134 39.689C11.322 39.807 13.093 39.865 15.45 39.865H35.221V32.769H17.377C14.71 32.749 12.938 32.632 12.062 32.418C10.27 31.97 9.375 30.616 9.375 28.358C9.375 26.45 10.125 25.165 11.624 24.503C12.636 24.056 14.31 23.831 16.647 23.831H23.043C26.314 23.831 28.757 23.549 30.373 22.984C33.196 22.03 35.133 20.356 36.185 17.961C37.042 16.034 37.47 13.97 37.47 11.77C37.47 9.355 36.915 7.185 35.805 5.257C34.248 2.531 31.901 0.905 28.767 0.38C27.249 0.127 24.97 0 21.933 0H1.898Z" transform="translate(447.428 97.5106) scale(1.33333 -1.33333)" fill="black"/>
<path d="M8.605 1.361V0H5.288C4.338 0 3.585 0.078 3.027 0.234C1.917 0.547 1.097 1.282 0.570999 2.44C0.189999 3.269 0 4.211 0 5.264C0 6.51 0.258 7.608 0.774 8.557C1.202 9.345 1.742 9.895 2.393 10.208C3.045 10.521 3.979 10.677 5.194 10.677H8.605V9.316H5.288C4.563 9.316 4.015 9.26 3.645 9.148C3.275 9.036 2.964 8.829 2.714 8.526C2.432 8.192 2.212 7.732 2.053 7.145C1.894 6.559 1.815 5.916 1.815 5.217C1.815 3.898 2.123 2.891 2.738 2.198C3.025 1.875 3.358 1.654 3.739 1.537C4.12 1.42 4.683 1.361 5.428 1.361H8.605Z" transform="translate(236.693 149.041) scale(1.33333 -1.33333)" fill="black"/>
<path d="M2.949 8.761L4.443 10.787H6.047L4.138 8.761H2.949ZM6.329 4.615V3.387H1.65C1.64 2.683 1.82 2.138 2.19 1.752C2.378 1.554 2.61 1.417 2.887 1.342C3.163 1.266 3.562 1.228 4.084 1.228H6.329V0H3.661C2.994 0 2.474 0.0509999 2.104 0.153C1.734 0.254 1.403 0.438 1.111 0.704C0.37 1.371 0 2.386 0 3.747C0 5.406 0.563 6.576 1.689 7.259C2.279 7.619 3.077 7.799 4.084 7.799H6.329V6.572H4.31C3.768 6.572 3.348 6.53 3.051 6.446C2.754 6.363 2.498 6.216 2.284 6.008C1.961 5.69 1.75 5.226 1.65 4.615H6.329Z" transform="translate(249.648 149.042) scale(1.33333 -1.33333)" fill="black"/>
<path d="M2.06534 14.2373H0V0H2.06534V14.2373Z" transform="translate(260.526 134.805)" fill="black"/>
<path d="M5.187 1.228V7.799H6.736V0H3.333C2.801 0 2.406 0.017 2.148 0.051C1.889 0.085 1.641 0.152 1.401 0.25C0.9 0.454 0.541 0.783 0.325 1.236C0.109 1.69 0 2.342 0 3.192V7.799H1.549V3.247C1.544 2.569 1.62 2.099 1.776 1.838C2.021 1.432 2.584 1.228 3.466 1.228H5.187Z" transform="translate(265.407 149.042) scale(1.33333 -1.33333)" fill="black"/>
<path d="M2.06534 14.2373H0V0H2.06534V14.2373Z" transform="translate(277.339 134.805)" fill="black"/>
<path d="M5.727 3.527H3.138C2.689 3.527 2.356 3.48 2.136 3.386C1.782 3.23 1.605 2.891 1.605 2.37C1.605 1.953 1.72 1.658 1.953 1.486C2.184 1.313 2.58 1.227 3.138 1.227H5.727V3.527ZM5.727 4.756C5.727 5.548 5.626 6.048 5.425 6.257C5.225 6.466 4.739 6.571 3.967 6.571H0.298V7.798H4.303C4.997 7.798 5.529 7.745 5.899 7.638C6.27 7.531 6.564 7.345 6.784 7.079C6.971 6.855 7.1 6.589 7.17 6.281C7.241 5.973 7.276 5.522 7.276 4.927V0H3.333C2.593 0 2.095 0.0250001 1.839 0.0780001C1.245 0.192 0.79 0.445 0.474 0.837C0.159 1.227 0 1.731 0 2.346C0 2.799 0.0870003 3.208 0.259 3.571C0.431 3.933 0.671 4.211 0.979 4.404C1.354 4.638 2.011 4.756 2.95 4.756H5.727Z" transform="translate(281.74 149.041) scale(1.33333 -1.33333)" fill="black"/>
<path d="M5.515 9.402L3.466 4.153H7.463L5.515 9.402ZM0 0L4.42 10.677H6.665L10.913 0H9.098L8.011 2.792H2.95L1.815 0H0Z" transform="translate(298.2 149.041) scale(1.33333 -1.33333)" fill="black"/>
<path d="M6.431 7.799V6.571H3.951C3.455 6.571 3.062 6.514 2.77 6.399C2.478 6.284 2.241 6.097 2.058 5.836C1.755 5.393 1.604 4.743 1.604 3.888C1.604 2.865 1.821 2.138 2.253 1.705C2.572 1.387 3.137 1.228 3.951 1.228H6.431V0H3.951C3.137 0 2.503 0.07 2.05 0.211C1.304 0.441 0.746 0.986 0.376 1.846C0.125 2.436 0 3.071 0 3.755C0 5.017 0.342 6.021 1.025 6.767C1.374 7.142 1.77 7.408 2.21 7.565C2.651 7.721 3.231 7.799 3.951 7.799H6.431Z" transform="translate(313.188 149.042) scale(1.33333 -1.33333)" fill="black"/>
<path d="M5.727 3.527H3.137C2.689 3.527 2.355 3.48 2.136 3.386C1.782 3.23 1.604 2.891 1.604 2.37C1.604 1.953 1.72 1.658 1.953 1.486C2.184 1.313 2.58 1.227 3.137 1.227H5.727V3.527ZM5.727 4.756C5.727 5.548 5.626 6.048 5.425 6.257C5.225 6.466 4.739 6.571 3.967 6.571H0.298V7.798H4.303C4.997 7.798 5.529 7.745 5.899 7.638C6.269 7.531 6.564 7.345 6.783 7.079C6.971 6.855 7.1 6.589 7.17 6.281C7.241 5.973 7.276 5.522 7.276 4.927V0H3.333C2.592 0 2.094 0.0250001 1.839 0.0780001C1.245 0.192 0.79 0.445 0.474 0.837C0.159 1.227 0 1.731 0 2.346C0 2.799 0.0860003 3.208 0.259 3.571C0.431 3.933 0.67 4.211 0.979 4.404C1.354 4.638 2.011 4.756 2.95 4.756H5.727Z" transform="translate(323.337 149.041) scale(1.33333 -1.33333)" fill="black"/>
<path d="M5.711 1.228V6.572H4.045C3.523 6.572 3.111 6.511 2.809 6.391C2.506 6.271 2.256 6.068 2.058 5.781C1.755 5.343 1.604 4.722 1.604 3.919C1.604 2.934 1.768 2.239 2.097 1.834C2.425 1.43 2.988 1.228 3.786 1.228H5.711ZM5.711 7.799V10.678H7.26V0H3.794C3.111 0 2.567 0.0520001 2.163 0.157C1.759 0.261 1.413 0.438 1.127 0.689C0.777 0.991 0.502 1.415 0.302 1.959C0.101 2.504 0 3.101 0 3.748C0 4.561 0.151 5.306 0.454 5.985C0.735 6.621 1.151 7.082 1.701 7.37C2.252 7.656 2.991 7.799 3.919 7.799H5.711Z" transform="translate(335.124 149.042) scale(1.33333 -1.33333)" fill="black"/>
<path d="M3.872 10.052L2.785 8.761H1.416L3.152 10.787H4.592L6.329 8.761H4.96L3.872 10.052ZM6.329 4.615V3.387H1.65C1.641 2.683 1.82 2.138 2.19 1.752C2.378 1.554 2.61 1.417 2.887 1.342C3.163 1.266 3.562 1.228 4.084 1.228H6.329V0H3.661C2.993 0 2.475 0.0509999 2.104 0.153C1.734 0.254 1.403 0.438 1.111 0.704C0.37 1.371 0 2.386 0 3.747C0 5.406 0.563 6.576 1.689 7.259C2.279 7.619 3.077 7.799 4.084 7.799H6.329V6.572H4.31C3.768 6.572 3.349 6.53 3.051 6.446C2.754 6.363 2.498 6.216 2.284 6.008C1.961 5.69 1.75 5.226 1.65 4.615H6.329Z" transform="translate(347.035 149.042) scale(1.33333 -1.33333)" fill="black"/>
<path d="M0 7.799H6.892C7.841 7.799 8.48 7.767 8.813 7.701C9.144 7.636 9.452 7.484 9.739 7.243C10.026 6.998 10.226 6.7 10.338 6.348C10.449 5.996 10.506 5.486 10.506 4.819V0H8.957V4.819C8.957 5.471 8.825 5.926 8.563 6.184C8.299 6.442 7.838 6.571 7.182 6.571H5.977V0H4.428V6.571H1.549V0H0V7.799Z" transform="translate(357.914 149.042) scale(1.33333 -1.33333)" fill="black"/>
<path d="M0 3.83865H2.06534V14.2373H0V3.83865ZM0 0H2.06534V2.15866H0V0Z" transform="translate(374.729 134.805)" fill="black"/>
<path d="M6.431 7.799V6.571H3.951C3.455 6.571 3.062 6.514 2.77 6.399C2.478 6.284 2.241 6.097 2.058 5.836C1.755 5.393 1.604 4.743 1.604 3.888C1.604 2.865 1.821 2.138 2.253 1.705C2.572 1.387 3.137 1.228 3.951 1.228H6.431V0H3.951C3.137 0 2.504 0.07 2.05 0.211C1.304 0.441 0.746 0.986 0.376 1.846C0.125 2.436 0 3.071 0 3.755C0 5.017 0.342 6.021 1.026 6.767C1.374 7.142 1.77 7.408 2.21 7.565C2.651 7.721 3.232 7.799 3.951 7.799H6.431Z" transform="translate(379.024 149.042) scale(1.33333 -1.33333)" fill="black"/>
<path d="M5.727 3.527H3.138C2.689 3.527 2.356 3.48 2.136 3.386C1.782 3.23 1.605 2.891 1.605 2.37C1.605 1.953 1.72 1.658 1.953 1.486C2.184 1.313 2.58 1.227 3.138 1.227H5.727V3.527ZM5.727 4.756C5.727 5.548 5.626 6.048 5.425 6.257C5.225 6.466 4.739 6.571 3.967 6.571H0.298V7.798H4.303C4.997 7.798 5.529 7.745 5.899 7.638C6.269 7.531 6.564 7.345 6.783 7.079C6.971 6.855 7.1 6.589 7.17 6.281C7.241 5.973 7.276 5.522 7.276 4.927V0H3.333C2.593 0 2.095 0.0250001 1.839 0.0780001C1.245 0.192 0.79 0.445 0.474 0.837C0.159 1.227 0 1.731 0 2.346C0 2.799 0.0870003 3.208 0.259 3.571C0.431 3.933 0.671 4.211 0.979 4.404C1.354 4.638 2.011 4.756 2.95 4.756H5.727Z" transform="translate(389.173 149.041) scale(1.33333 -1.33333)" fill="black"/>
<path d="M5.71 1.228V6.572H4.044C3.522 6.572 3.11 6.511 2.808 6.391C2.506 6.271 2.255 6.068 2.057 5.781C1.755 5.343 1.604 4.722 1.604 3.919C1.604 2.934 1.768 2.239 2.096 1.834C2.425 1.43 2.988 1.228 3.786 1.228H5.71ZM5.71 7.799V10.678H7.259V0H3.794C3.11 0 2.566 0.0520001 2.163 0.157C1.758 0.261 1.413 0.438 1.126 0.689C0.776 0.991 0.501 1.415 0.301 1.959C0.1 2.504 0 3.101 0 3.748C0 4.561 0.15 5.306 0.453 5.985C0.735 6.621 1.15 7.082 1.701 7.37C2.251 7.656 2.99 7.799 3.919 7.799H5.71Z" transform="translate(406.301 149.042) scale(1.33333 -1.33333)" fill="black"/>
<path d="M6.328 4.615V3.386H1.65C1.64 2.682 1.819 2.137 2.19 1.752C2.378 1.553 2.609 1.417 2.886 1.342C3.162 1.265 3.561 1.227 4.083 1.227H6.328V0H3.66C2.993 0 2.474 0.0509999 2.103 0.152C1.733 0.254 1.402 0.437 1.11 0.704C0.37 1.371 0 2.386 0 3.747C0 5.405 0.562 6.576 1.689 7.259C2.278 7.619 3.076 7.799 4.083 7.799H6.328V6.571H4.309C3.767 6.571 3.348 6.529 3.051 6.445C2.753 6.362 2.498 6.216 2.284 6.008C1.961 5.689 1.749 5.225 1.65 4.615H6.328Z" transform="translate(418.213 149.041) scale(1.33333 -1.33333)" fill="black"/>
<path d="M1.705 9.317V1.361H4.428C5.638 1.361 6.485 1.713 6.97 2.417C7.413 3.058 7.635 3.99 7.635 5.21C7.635 6.591 7.38 7.64 6.868 8.354C6.623 8.699 6.304 8.945 5.91 9.093C5.516 9.243 4.983 9.317 4.31 9.317H1.705ZM0 10.677H4.1C5.23 10.677 6.059 10.597 6.587 10.435C7.567 10.128 8.331 9.436 8.879 8.362C9.26 7.606 9.45 6.63 9.45 5.436C9.45 3.053 8.803 1.452 7.51 0.633C7.113 0.383 6.696 0.214001 6.258 0.129001C5.82 0.0430007 5.152 0 4.256 0H0V10.677Z" transform="translate(237.507 174.675) scale(1.33333 -1.33333)" fill="black"/>
<path d="M6.329 4.615V3.387H1.65C1.641 2.683 1.82 2.138 2.19 1.753C2.378 1.554 2.61 1.417 2.887 1.342C3.163 1.266 3.562 1.228 4.084 1.228H6.329V0H3.661C2.994 0 2.475 0.0509999 2.104 0.152C1.734 0.255 1.403 0.438 1.111 0.704C0.37 1.372 0 2.386 0 3.747C0 5.405 0.563 6.576 1.689 7.26C2.279 7.619 3.077 7.8 4.084 7.8H6.329V6.571H4.31C3.768 6.571 3.349 6.529 3.051 6.446C2.754 6.362 2.498 6.217 2.284 6.008C1.961 5.689 1.75 5.225 1.65 4.615H6.329Z" transform="translate(251.577 174.676) scale(1.33333 -1.33333)" fill="black"/>
<path d="M6.814 7.8V6.571H3.301C2.764 6.571 2.416 6.56 2.256 6.536C2.097 6.513 1.971 6.451 1.877 6.353C1.695 6.17 1.604 5.875 1.604 5.468C1.604 5.077 1.702 4.821 1.897 4.701C2.093 4.582 2.511 4.522 3.153 4.522H4.209C5.069 4.512 5.598 4.496 5.796 4.475C5.995 4.454 6.182 4.389 6.36 4.279C6.881 3.956 7.142 3.307 7.142 2.331C7.142 1.263 6.808 0.561 6.141 0.227C5.959 0.133 5.745 0.0720002 5.5 0.0430002C5.254 0.0150002 4.824 0 4.209 0H0.086V1.229H3.834C4.553 1.229 4.994 1.263 5.155 1.33C5.411 1.44 5.539 1.732 5.539 2.206C5.539 2.707 5.379 2.996 5.061 3.074C4.931 3.112 4.555 3.129 3.935 3.129H3.301C2.466 3.129 1.901 3.154 1.604 3.203C1.306 3.253 1.048 3.369 0.83 3.552C0.277 3.995 0 4.642 0 5.492C0 5.946 0.0910002 6.35 0.274 6.704C0.457 7.059 0.707 7.32 1.025 7.487C1.421 7.696 2.044 7.8 2.894 7.8H6.814Z" transform="translate(261.841 174.676) scale(1.33333 -1.33333)" fill="black"/>
<path d="M6.328 4.615V3.387H1.65C1.64 2.683 1.819 2.138 2.19 1.753C2.378 1.554 2.609 1.417 2.887 1.342C3.163 1.266 3.561 1.228 4.083 1.228H6.328V0H3.661C2.993 0 2.474 0.0509999 2.103 0.152C1.733 0.255 1.402 0.438 1.11 0.704C0.37 1.372 0 2.386 0 3.747C0 5.405 0.562 6.576 1.689 7.26C2.278 7.619 3.076 7.8 4.083 7.8H6.328V6.571H4.309C3.767 6.571 3.348 6.529 3.051 6.446C2.753 6.362 2.498 6.217 2.284 6.008C1.961 5.689 1.749 5.225 1.65 4.615H6.328Z" transform="translate(272.97 174.676) scale(1.33333 -1.33333)" fill="black"/>
<path d="M0 7.8H3.605C4.289 7.8 4.835 7.726 5.245 7.576C5.654 7.428 5.984 7.182 6.234 6.837C6.573 6.4 6.748 5.669 6.759 4.647V0H5.21V4.483C5.21 5.265 5.075 5.809 4.807 6.113C4.538 6.419 4.057 6.571 3.363 6.571H1.549V0H0V7.8Z" transform="translate(283.849 174.676) scale(1.33333 -1.33333)" fill="black"/>
<path d="M4.075 2.011L6.625 7.8H8.253L4.646 0H3.402L0 7.8H1.689L4.075 2.011Z" transform="translate(293.81 174.676) scale(1.33333 -1.33333)" fill="black"/>
<path d="M3.974 6.688C3.213 6.688 2.627 6.451 2.218 5.976C1.809 5.501 1.604 4.827 1.604 3.95C1.604 3.116 1.771 2.49 2.105 2.073C2.527 1.545 3.14 1.283 3.943 1.283C5.554 1.283 6.361 2.159 6.361 3.911C6.361 4.802 6.156 5.486 5.746 5.96C5.336 6.435 4.746 6.677 3.974 6.688ZM4.068 7.971C5.32 7.971 6.292 7.611 6.986 6.891C7.638 6.218 7.964 5.238 7.964 3.95C7.964 2.75 7.633 1.801 6.97 1.103C6.266 0.368 5.27 0 3.982 0C2.626 0 1.599 0.376 0.9 1.126C0.3 1.762 0 2.669 0 3.848C0 5.089 0.336 6.085 1.009 6.836C1.677 7.583 2.697 7.96 4.068 7.971" transform="translate(305.188 174.79) scale(1.33333 -1.33333)" fill="black"/>
<path d="M2.06531 14.2373H0V0H2.06531V14.2373Z" transform="translate(318.039 160.438)" fill="black"/>
<path d="M4.075 2.011L6.625 7.8H8.253L4.646 0H3.402L0 7.8H1.689L4.075 2.011Z" transform="translate(321.659 174.676) scale(1.33333 -1.33333)" fill="black"/>
<path d="M0 3.83733H2.06534V14.2373H0V3.83733ZM0 0H2.06534V2.15868H0V0Z" transform="translate(334.299 160.438)" fill="black"/>
<path d="M0 7.8H6.893C7.841 7.8 8.481 7.767 8.813 7.701C9.144 7.637 9.453 7.485 9.739 7.244C10.026 6.999 10.226 6.7 10.338 6.349C10.45 5.996 10.506 5.487 10.506 4.82V0H8.957V4.82C8.957 5.471 8.825 5.926 8.563 6.184C8.299 6.443 7.839 6.571 7.182 6.571H5.977V0H4.428V6.571H1.549V0H0V7.8Z" transform="translate(339.327 174.676) scale(1.33333 -1.33333)" fill="black"/>
<path d="M6.329 4.615V3.387H1.651C1.641 2.683 1.82 2.138 2.19 1.753C2.379 1.554 2.61 1.417 2.887 1.342C3.163 1.266 3.562 1.228 4.084 1.228H6.329V0H3.661C2.994 0 2.475 0.0509999 2.104 0.152C1.734 0.255 1.403 0.438 1.111 0.704C0.371 1.372 0 2.386 0 3.747C0 5.405 0.563 6.576 1.69 7.26C2.279 7.619 3.077 7.8 4.084 7.8H6.329V6.571H4.31C3.768 6.571 3.349 6.529 3.052 6.446C2.754 6.362 2.498 6.217 2.285 6.008C1.961 5.689 1.75 5.225 1.651 4.615H6.329Z" transform="translate(355.41 174.676) scale(1.33333 -1.33333)" fill="black"/>
<path d="M0 7.8H3.606C4.29 7.8 4.836 7.726 5.246 7.576C5.654 7.428 5.984 7.182 6.235 6.837C6.574 6.4 6.749 5.669 6.759 4.647V0H5.21V4.483C5.21 5.265 5.076 5.809 4.808 6.113C4.539 6.419 4.058 6.571 3.364 6.571H1.549V0H0V7.8Z" transform="translate(366.289 174.676) scale(1.33333 -1.33333)" fill="black"/>
<path d="M1.486 7.8V10.678H3.035V7.8H5.311V6.571H3.035V2.472C3.035 2.139 3.05 1.902 3.082 1.761C3.113 1.619 3.175 1.513 3.27 1.44C3.431 1.299 3.807 1.229 4.396 1.229H5.311V0H3.809C3.298 0 2.919 0.0310003 2.672 0.0940003C2.423 0.156 2.206 0.279 2.018 0.462C1.82 0.65 1.681 0.882 1.603 1.158C1.525 1.435 1.486 1.828 1.486 2.339V6.571H0V7.8H1.486Z" transform="translate(377.002 174.676) scale(1.33333 -1.33333)" fill="black"/>
<path d="M3.975 6.688C3.213 6.688 2.627 6.451 2.218 5.976C1.809 5.501 1.604 4.827 1.604 3.95C1.604 3.116 1.771 2.49 2.105 2.073C2.528 1.545 3.14 1.283 3.944 1.283C5.555 1.283 6.361 2.159 6.361 3.911C6.361 4.802 6.156 5.486 5.746 5.96C5.336 6.435 4.746 6.677 3.975 6.688ZM4.069 7.971C5.32 7.971 6.292 7.611 6.987 6.891C7.638 6.218 7.964 5.238 7.964 3.95C7.964 2.75 7.633 1.801 6.971 1.103C6.267 0.368 5.271 0 3.983 0C2.626 0 1.599 0.376 0.9 1.126C0.3 1.762 0 2.669 0 3.848C0 5.089 0.337 6.085 1.01 6.836C1.677 7.583 2.697 7.96 4.069 7.971" transform="translate(385.053 174.79) scale(1.33333 -1.33333)" fill="black"/>
<path d="M5.71 1.229V6.572H4.044C3.522 6.572 3.11 6.512 2.809 6.392C2.506 6.272 2.255 6.069 2.058 5.782C1.755 5.343 1.604 4.723 1.604 3.919C1.604 2.934 1.768 2.24 2.097 1.835C2.425 1.431 2.988 1.229 3.786 1.229H5.71ZM5.71 7.8V10.678H7.26V0H3.794C3.11 0 2.566 0.0529999 2.163 0.157C1.759 0.261 1.413 0.439 1.126 0.689C0.777 0.992 0.502 1.416 0.301 1.96C0.1 2.505 0 3.101 0 3.748C0 4.561 0.151 5.307 0.453 5.985C0.735 6.622 1.15 7.083 1.701 7.37C2.251 7.657 2.99 7.8 3.919 7.8H5.71Z" transform="translate(402.514 174.677) scale(1.33333 -1.33333)" fill="black"/>
<path d="M6.328 4.615V3.387H1.65C1.64 2.683 1.82 2.138 2.19 1.753C2.378 1.554 2.61 1.417 2.887 1.342C3.163 1.266 3.561 1.228 4.083 1.228H6.328V0H3.661C2.993 0 2.474 0.0509999 2.104 0.152C1.733 0.255 1.402 0.438 1.11 0.704C0.37 1.372 0 2.386 0 3.747C0 5.405 0.563 6.576 1.689 7.26C2.278 7.619 3.077 7.8 4.083 7.8H6.328V6.571H4.31C3.767 6.571 3.348 6.529 3.051 6.446C2.753 6.362 2.498 6.217 2.284 6.008C1.961 5.689 1.749 5.225 1.65 4.615H6.328Z" transform="translate(414.426 174.676) scale(1.33333 -1.33333)" fill="black"/>
<path d="M0.384 0V1.361H4.999C5.708 1.361 6.217 1.45 6.525 1.627C6.994 1.898 7.229 2.36 7.229 3.012C7.229 3.841 6.924 4.354 6.314 4.553C6.042 4.642 5.497 4.686 4.679 4.686H3.786C2.556 4.686 1.675 4.855 1.143 5.194C0.381 5.674 0 6.433 0 7.471C0 8.154 0.175 8.759 0.525 9.286C0.863 9.802 1.303 10.163 1.843 10.369C2.383 10.575 3.148 10.678 4.139 10.678H8.535V9.317H4.139C3.675 9.317 3.319 9.295 3.072 9.251C2.823 9.206 2.609 9.127 2.426 9.012C2.019 8.751 1.816 8.318 1.816 7.714C1.816 7.182 1.993 6.801 2.352 6.571C2.708 6.342 3.304 6.228 4.139 6.228H4.78C5.693 6.228 6.373 6.186 6.821 6.102C7.271 6.019 7.641 5.867 7.933 5.648C8.282 5.382 8.555 5.022 8.75 4.568C8.946 4.115 9.043 3.614 9.043 3.066C9.043 1.805 8.551 0.918 7.565 0.407C7.257 0.251 6.909 0.144 6.521 0.086C6.132 0.029 5.552 0 4.78 0H0.384Z" transform="translate(429.935 174.676) scale(1.33333 -1.33333)" fill="black"/>
<path d="M3.974 6.688C3.213 6.688 2.627 6.451 2.218 5.976C1.808 5.501 1.604 4.827 1.604 3.95C1.604 3.116 1.771 2.49 2.105 2.073C2.527 1.545 3.14 1.283 3.943 1.283C5.554 1.283 6.361 2.159 6.361 3.911C6.361 4.802 6.156 5.486 5.746 5.96C5.336 6.435 4.746 6.677 3.974 6.688ZM4.068 7.971C5.32 7.971 6.292 7.611 6.986 6.891C7.638 6.218 7.964 5.238 7.964 3.95C7.964 2.75 7.633 1.801 6.97 1.103C6.266 0.368 5.27 0 3.982 0C2.626 0 1.599 0.376 0.9 1.126C0.3 1.762 0 2.669 0 3.848C0 5.089 0.336 6.085 1.009 6.836C1.677 7.583 2.697 7.96 4.068 7.971" transform="translate(443.515 174.79) scale(1.33333 -1.33333)" fill="black"/>
<path d="M1.377 6.571H0V7.8H1.377V8.143C1.377 9.041 1.575 9.687 1.971 10.084C2.367 10.48 3.015 10.677 3.911 10.677H5.515V9.45H4.114C3.64 9.45 3.323 9.369 3.164 9.208C3.005 9.046 2.926 8.719 2.926 8.229V7.8H5.382V6.571H2.926V0H1.377V6.571Z" transform="translate(455.292 174.675) scale(1.33333 -1.33333)" fill="black"/>
<path d="M1.486 7.8V10.678H3.035V7.8H5.311V6.571H3.035V2.472C3.035 2.139 3.05 1.902 3.082 1.761C3.113 1.619 3.175 1.513 3.269 1.44C3.431 1.299 3.807 1.229 4.396 1.229H5.311V0H3.809C3.298 0 2.919 0.0310003 2.672 0.0940003C2.423 0.156 2.206 0.279 2.018 0.462C1.82 0.65 1.681 0.882 1.603 1.158C1.525 1.435 1.486 1.828 1.486 2.339V6.571H0V7.8H1.486Z" transform="translate(463.532 174.676) scale(1.33333 -1.33333)" fill="black"/>
<path d="M4.529 1.229V7.8H6.078V1.229H8.957V7.8H10.506V0H3.246C2.417 0 1.836 0.063 1.502 0.188C0.98 0.386 0.599 0.696 0.36 1.116C0.12 1.536 0 2.102 0 2.817L0.0079999 3.505V7.8H1.556V3.326C1.556 2.793 1.569 2.432 1.591 2.242C1.616 2.051 1.672 1.888 1.759 1.753C1.875 1.56 2.046 1.424 2.272 1.346C2.499 1.268 2.824 1.229 3.246 1.229H4.529Z" transform="translate(472.533 174.677) scale(1.33333 -1.33333)" fill="black"/>
<path d="M5.727 3.528H3.138C2.689 3.528 2.356 3.481 2.136 3.387C1.782 3.231 1.605 2.891 1.605 2.37C1.605 1.953 1.72 1.658 1.953 1.486C2.184 1.314 2.58 1.228 3.138 1.228H5.727V3.528ZM5.727 4.757C5.727 5.549 5.626 6.049 5.425 6.258C5.225 6.466 4.739 6.571 3.967 6.571H0.298V7.799H4.303C4.997 7.799 5.529 7.746 5.899 7.638C6.269 7.532 6.564 7.345 6.784 7.08C6.971 6.855 7.1 6.59 7.17 6.282C7.241 5.974 7.276 5.523 7.276 4.928V0H3.333C2.593 0 2.095 0.0260001 1.839 0.0780001C1.245 0.193 0.79 0.446 0.474 0.837C0.159 1.228 0 1.731 0 2.346C0 2.8 0.0870003 3.209 0.259 3.571C0.431 3.933 0.671 4.211 0.979 4.404C1.354 4.638 2.011 4.757 2.95 4.757H5.727Z" transform="translate(488.74 174.675) scale(1.33333 -1.33333)" fill="black"/>
<path d="M0 7.8H2.003C2.645 7.8 3.143 7.755 3.497 7.666C3.852 7.578 4.151 7.424 4.396 7.205C4.631 6.991 4.795 6.726 4.89 6.407C4.983 6.089 5.03 5.633 5.03 5.038V4.279H3.567V5.038C3.567 5.607 3.469 5.992 3.274 6.196C3.078 6.4 2.709 6.501 2.167 6.501H1.549V0H0V7.8Z" transform="translate(501.258 174.676) scale(1.33333 -1.33333)" fill="black"/>
<path d="M6.329 4.615V3.387H1.65C1.641 2.683 1.82 2.138 2.19 1.753C2.378 1.554 2.61 1.417 2.887 1.342C3.163 1.266 3.561 1.228 4.084 1.228H6.329V0H3.661C2.993 0 2.475 0.0509999 2.104 0.152C1.734 0.255 1.403 0.438 1.111 0.704C0.37 1.372 0 2.386 0 3.747C0 5.405 0.563 6.576 1.689 7.26C2.279 7.619 3.077 7.8 4.084 7.8H6.329V6.571H4.31C3.767 6.571 3.349 6.529 3.051 6.446C2.754 6.362 2.498 6.217 2.284 6.008C1.961 5.689 1.75 5.225 1.65 4.615H6.329Z" transform="translate(509.269 174.676) scale(1.33333 -1.33333)" fill="black"/>
<path d="M346.816 3.56133H0V0H346.816V3.56133Z" transform="translate(170.109 116.068)" fill="black"/>
<path d="M39.937 0L38.35 0.222L45.365 50.444L0 55.48L0.177002 57.073L47.18 51.854L39.937 0Z" transform="translate(117.917 117.996) scale(1.33333 -1.33333)" fill="white"/>
<path d="M8.727 24.267L58.654 2.073L89.755 60.947L41.911 73.14L50.728 115.996L1.707 86.132L8.727 24.267ZM59.372 0L7.239 23.176L0 86.968L53.04 119.28L43.788 74.316L92.122 61.996L59.372 0Z" transform="translate(48.8575 199.811) scale(1.33333 -1.33333)" fill="white"/>
<path d="M0.921 0L0 1.311L55.218 40.093L56.139 38.782L0.921 0Z" transform="translate(105.376 102.38) scale(1.33333 -1.33333)" fill="white"/>
<path d="M66.791 0L24.978 12.768L0.271004 8.534L0 10.113L25.081 14.411L67.259 1.532L66.791 0Z" transform="translate(16.6239 102.529) scale(1.33333 -1.33333)" fill="white"/>
<path d="M33.821 27.916L47.217 1.724L82.945 5.985L67.37 76.032L33.821 27.916ZM46.299 0L32.249 27.473L8.81 47.313L0 86.75L39.563 135.086L77.042 122.656L76.538 121.136L40.105 133.219L1.734 86.338L10.257 48.188L32.735 29.16L68.142 79.94L84.893 4.604L46.299 0Z" transform="translate(15.6489 205.488) scale(1.33333 -1.33333)" fill="white"/>
<path d="M19.65 9.825C19.65 4.399 15.252 0 9.825 0C4.398 0 0 4.399 0 9.825C0 15.252 4.398 19.651 9.825 19.651C15.252 19.651 19.65 15.252 19.65 9.825Z" transform="translate(36.8965 97.5103) scale(1.33333 -1.33333)" fill="white"/>
<path d="M14.259 7.129C14.259 3.191 11.067 0 7.129 0C3.193 0 0 3.191 0 7.129C0 11.067 3.193 14.258 7.129 14.258C11.067 14.258 14.259 11.067 14.259 7.129Z" transform="translate(170.108 59.3022) scale(1.33333 -1.33333)" fill="white"/>
<path d="M14.258 7.129C14.258 3.191 11.067 0 7.129 0C3.193 0 0 3.191 0 7.129C0 11.066 3.193 14.258 7.129 14.258C11.067 14.258 14.258 11.066 14.258 7.129Z" transform="translate(118.035 207.934) scale(1.33333 -1.33333)" fill="white"/>
<path d="M32.231 16.115C32.231 7.215 25.015 0 16.115 0C7.214 0 0 7.215 0 16.115C0 25.016 7.214 32.231 16.115 32.231C25.015 32.231 32.231 25.016 32.231 16.115Z" transform="translate(96.549 64.4478) scale(1.33333 -1.33333)" fill="white"/>
<path d="M11.189 5.595C11.189 2.505 8.684 0 5.594 0C2.504 0 0 2.505 0 5.595C0 8.686 2.504 11.191 5.594 11.191C8.684 11.191 11.189 8.686 11.189 5.595Z" transform="translate(20.9019 149.28) scale(1.33333 -1.33333)" fill="white"/>
<path d="M10.855 5.428C10.855 2.43 8.425 0 5.427 0C2.429 0 0 2.43 0 5.428C0 8.426 2.429 10.856 5.427 10.856C8.425 10.856 10.855 8.426 10.855 5.428Z" transform="translate(98.7533 108.744) scale(1.33333 -1.33333)" fill="white"/>
<path d="M72.356 36.1787C72.356 56.1587 56.1587 72.356 36.1773 72.356C16.1973 72.356 0 56.1587 0 36.1787C0 16.1987 16.1973 0 36.1773 0C56.1587 0 72.356 16.1987 72.356 36.1787" transform="translate(133.931 81.6704)" fill="white"/>
</svg>
