<svg width="531" height="231" viewBox="0 0 531 231" fill="none" xmlns="http://www.w3.org/2000/svg">
<rect width="530.615" height="230.725" fill="black" fill-opacity="0"/>
<rect width="173.043" height="173.044" fill="black" fill-opacity="0" transform="translate(0 230.725) scale(1.33333 -1.33333)"/>
<path d="M115.363 4.272C54.1067 4.272 4.272 54.1067 4.272 115.361C4.272 176.619 54.1067 226.453 115.363 226.453C176.617 226.453 226.452 176.619 226.452 115.361C226.452 54.1067 176.617 4.272 115.363 4.272ZM115.363 230.725C51.752 230.725 0 178.973 0 115.361C0 51.7507 51.752 3.57977e-06 115.363 3.57977e-06C178.973 3.57977e-06 230.724 51.7507 230.724 115.361C230.724 178.973 178.973 230.725 115.363 230.725Z" fill="black" fill-opacity="0.15"/>
<rect width="17.333" height="17.333" fill="black" fill-opacity="0" transform="translate(507.505 131.54) scale(1.33333 -1.33333)"/>
<path d="M530.615 119.985C530.615 126.367 525.442 131.54 519.059 131.54C512.678 131.54 507.505 126.367 507.505 119.985C507.505 113.603 512.678 108.429 519.059 108.429C525.442 108.429 530.615 113.603 530.615 119.985Z" fill="black" fill-opacity="0.15"/>
<rect width="32.447" height="39.866" fill="black" fill-opacity="0" transform="translate(236.406 99.6473) scale(1.33333 -1.33333)"/>
<path d="M279.669 90.1847V99.6473H261.134C257.602 99.6473 254.903 99.4647 253.034 99.1007C246.518 97.8287 241.883 94.182 239.133 88.158C237.315 84.1353 236.406 79.1513 236.406 73.2073C236.406 66.0673 237.795 60.2527 240.573 55.762C242.571 52.5433 245.253 50.1927 248.614 48.7127C251.975 47.2327 256.33 46.4927 261.678 46.4927H279.669V55.9553H262.963C257.901 55.9553 254.189 57.306 251.827 60.006C249.879 62.238 248.906 66.2887 248.906 72.1553C248.906 79.994 250.425 85.1487 253.462 87.614C255.59 89.3273 258.901 90.1847 263.391 90.1847H279.669Z" fill="black" fill-opacity="0.15"/>
<rect width="42.785" height="39.865" fill="black" fill-opacity="0" transform="translate(283.485 99.6468) scale(1.33333 -1.33333)"/>
<path d="M312.027 59.2655L304.434 77.8788H319.582L312.027 59.2655ZM283.485 99.6468L305.486 46.4935H318.53L340.531 99.6468H327.253L322.113 87.3415H301.903L296.763 99.6468H283.485Z" fill="black" fill-opacity="0.15"/>
<rect width="36.886" height="39.866" fill="black" fill-opacity="0" transform="translate(346.256 99.6476) scale(1.33333 -1.33333)"/>
<path d="M357.548 55.9556V90.1849H368.802C373.734 90.1849 377.16 89.0809 379.082 86.8743C380.25 85.5249 381.191 83.5969 381.906 81.0929C382.619 78.5876 382.976 75.9196 382.976 73.0903C382.976 69.9743 382.554 67.1063 381.711 64.4836C380.866 61.8623 379.744 59.9156 378.342 58.6436C376.318 56.8516 373.136 55.9556 368.802 55.9556H357.548ZM346.256 46.4929H368.802C374.435 46.4929 378.796 47.0516 381.886 48.1676C387.571 50.2183 391.36 54.0089 393.256 59.5396C394.71 63.7703 395.438 68.3143 395.438 73.1676C395.438 77.9703 394.748 82.4996 393.374 86.7583C391.996 91.1183 389.699 94.3249 386.48 96.3756C384.456 97.6743 382.243 98.5423 379.842 98.9836C377.439 99.4263 373.76 99.6476 368.802 99.6476H346.256V46.4929Z" fill="black" fill-opacity="0.15"/>
<rect width="32.067" height="39.865" fill="black" fill-opacity="0" transform="translate(400.538 99.6467) scale(1.33333 -1.33333)"/>
<path d="M443.294 46.4933V55.956H428.536C424.667 55.956 421.858 56.2227 420.104 56.7533C418.352 57.2867 416.892 58.3187 415.724 59.8507C414.946 60.8893 414.412 61.94 414.127 63.004C413.842 64.0693 413.595 65.8853 413.388 68.456H443.294V77.9173H413.388C413.778 82.5133 415.114 85.7053 417.399 87.4973C419.683 89.2893 423.564 90.1853 429.042 90.1853H443.294V99.6467H428.536C424.538 99.6467 421.02 99.4 417.983 98.9067C413.206 98.128 409.403 96.0387 406.574 92.6373C402.55 87.7573 400.538 81.1373 400.538 72.7787C400.538 63.5107 403.38 56.3067 409.066 51.1667C411.012 49.4267 413.09 48.2133 415.296 47.5253C417.503 46.8387 420.462 46.4933 424.175 46.4933H443.294Z" fill="black" fill-opacity="0.15"/>
<rect width="37.469" height="39.865" fill="black" fill-opacity="0" transform="translate(449.564 99.6469) scale(1.33333 -1.33333)"/>
<path d="M452.095 99.6469V90.1843H476.353C480.248 90.1843 482.844 89.7949 484.141 89.0149C486.011 87.8989 486.945 86.2256 486.945 83.9936C486.945 81.4229 485.855 79.5403 483.675 78.3456C482.428 77.6723 480.443 77.3349 477.717 77.3349H467.865C461.843 77.3349 457.507 76.2429 454.859 74.0643C453.197 72.6869 451.9 70.9536 450.965 68.8643C450.031 66.7749 449.564 64.5496 449.564 62.1856C449.564 58.4483 450.653 55.0349 452.835 51.9456C454.963 48.9589 458.376 47.2216 463.075 46.7283C464.659 46.5709 467.021 46.4936 470.163 46.4936H496.525V55.9549H472.733C469.176 55.9816 466.813 56.1376 465.645 56.4229C463.257 57.0203 462.063 58.8256 462.063 61.8363C462.063 64.3803 463.063 66.0936 465.061 66.9763C466.411 67.5723 468.644 67.8723 471.759 67.8723H480.287C484.648 67.8723 487.905 68.2483 490.061 69.0016C493.824 70.2736 496.408 72.5056 497.809 75.6989C498.952 78.2683 499.523 81.0203 499.523 83.9536C499.523 87.1736 498.784 90.0669 497.304 92.6376C495.227 96.2723 492.097 98.4403 487.919 99.1403C485.895 99.4776 482.857 99.6469 478.807 99.6469H452.095Z" fill="black" fill-opacity="0.15"/>
<rect width="8.605" height="10.677" fill="black" fill-opacity="0" transform="translate(238.828 151.178) scale(1.33333 -1.33333)"/>
<path d="M250.302 149.363V151.178H245.879C244.614 151.178 243.608 151.074 242.864 150.866C241.384 150.448 240.292 149.468 239.59 147.924C239.082 146.819 238.828 145.563 238.828 144.159C238.828 142.498 239.172 141.034 239.86 139.768C240.431 138.718 241.151 137.984 242.02 137.567C242.89 137.15 244.135 136.942 245.754 136.942H250.302V138.756H245.879C244.912 138.756 244.183 138.831 243.69 138.98C243.195 139.13 242.782 139.406 242.448 139.81C242.072 140.255 241.778 140.868 241.566 141.651C241.355 142.432 241.248 143.29 241.248 144.222C241.248 145.98 241.659 147.323 242.479 148.247C242.862 148.678 243.307 148.972 243.814 149.128C244.322 149.284 245.074 149.363 246.067 149.363H250.302Z" fill="black" fill-opacity="0.15"/>
<rect width="6.328" height="10.787" fill="black" fill-opacity="0" transform="translate(251.783 151.179) scale(1.33333 -1.33333)"/>
<path d="M255.715 139.497L257.707 136.796H259.846L257.3 139.497H255.715ZM260.22 145.025V146.663H253.984C253.97 147.601 254.21 148.328 254.703 148.843C254.954 149.107 255.263 149.289 255.632 149.389C256 149.491 256.532 149.541 257.227 149.541H260.22V151.179H256.664C255.774 151.179 255.082 151.111 254.588 150.975C254.095 150.84 253.654 150.595 253.264 150.24C252.276 149.351 251.783 147.997 251.783 146.183C251.783 143.971 252.534 142.411 254.036 141.5C254.822 141.02 255.886 140.78 257.227 140.78H260.22V142.416H257.53C256.807 142.416 256.247 142.472 255.851 142.584C255.455 142.695 255.114 142.891 254.828 143.168C254.398 143.592 254.116 144.211 253.984 145.025H260.22Z" fill="black" fill-opacity="0.15"/>
<path d="M264.727 151.178H262.661V136.94H264.727V151.178Z" fill="black" fill-opacity="0.15"/>
<rect width="6.736" height="7.799" fill="black" fill-opacity="0" transform="translate(267.542 151.179) scale(1.33333 -1.33333)"/>
<path d="M274.458 149.541V140.78H276.524V151.179H271.986C271.277 151.179 270.75 151.156 270.406 151.111C270.062 151.065 269.73 150.976 269.41 150.845C268.742 150.573 268.264 150.135 267.976 149.531C267.686 148.925 267.542 148.056 267.542 146.923V140.78H269.608V146.849C269.601 147.753 269.702 148.38 269.91 148.728C270.237 149.269 270.988 149.541 272.164 149.541H274.458Z" fill="black" fill-opacity="0.15"/>
<path d="M281.54 151.178H279.475V136.94H281.54V151.178Z" fill="black" fill-opacity="0.15"/>
<rect width="7.275" height="7.798" fill="black" fill-opacity="0" transform="translate(283.877 151.178) scale(1.33333 -1.33333)"/>
<path d="M291.512 146.475H288.06C287.461 146.475 287.016 146.538 286.725 146.663C286.252 146.871 286.015 147.323 286.015 148.018C286.015 148.574 286.169 148.967 286.48 149.196C286.789 149.426 287.316 149.542 288.06 149.542H291.512V146.475ZM291.512 144.836C291.512 143.78 291.377 143.112 291.111 142.835C290.843 142.556 290.195 142.416 289.165 142.416H284.273V140.78H289.613C290.539 140.78 291.248 140.851 291.741 140.994C292.235 141.135 292.628 141.384 292.92 141.739C293.171 142.038 293.343 142.392 293.437 142.803C293.531 143.214 293.577 143.815 293.577 144.608V151.178H288.32C287.333 151.178 286.669 151.144 286.328 151.074C285.536 150.922 284.929 150.584 284.509 150.062C284.087 149.542 283.877 148.87 283.877 148.05C283.877 147.444 283.992 146.9 284.221 146.416C284.451 145.934 284.771 145.563 285.18 145.306C285.681 144.994 286.557 144.836 287.809 144.836H291.512Z" fill="black" fill-opacity="0.15"/>
<rect width="10.912" height="10.677" fill="black" fill-opacity="0" transform="translate(300.336 151.178) scale(1.33333 -1.33333)"/>
<path d="M307.69 138.642L304.956 145.64H310.287L307.69 138.642ZM300.336 151.178L306.23 136.942H309.223L314.886 151.178H312.467L311.016 147.454H304.268L302.756 151.178H300.336Z" fill="black" fill-opacity="0.15"/>
<rect width="6.43" height="7.799" fill="black" fill-opacity="0" transform="translate(315.325 151.178) scale(1.33333 -1.33333)"/>
<path d="M323.898 140.78V142.417H320.593C319.931 142.417 319.406 142.493 319.017 142.646C318.627 142.8 318.311 143.049 318.067 143.397C317.665 143.988 317.462 144.854 317.462 145.994C317.462 147.358 317.751 148.328 318.329 148.905C318.753 149.329 319.507 149.541 320.593 149.541H323.898V151.178H320.593C319.507 151.178 318.662 151.085 318.057 150.897C317.063 150.59 316.318 149.864 315.825 148.717C315.491 147.93 315.325 147.084 315.325 146.172C315.325 144.489 315.781 143.15 316.691 142.156C317.157 141.656 317.683 141.301 318.271 141.092C318.858 140.884 319.633 140.78 320.593 140.78H323.898Z" fill="black" fill-opacity="0.15"/>
<rect width="7.276" height="7.798" fill="black" fill-opacity="0" transform="translate(325.472 151.178) scale(1.33333 -1.33333)"/>
<path d="M333.108 146.475H329.656C329.058 146.475 328.612 146.538 328.32 146.663C327.848 146.871 327.611 147.323 327.611 148.018C327.611 148.574 327.766 148.967 328.075 149.196C328.384 149.426 328.912 149.542 329.656 149.542H333.108V146.475ZM333.108 144.836C333.108 143.78 332.974 143.112 332.706 142.835C332.439 142.556 331.791 142.416 330.762 142.416H325.87V140.78H331.21C332.135 140.78 332.844 140.851 333.338 140.994C333.831 141.135 334.224 141.384 334.516 141.739C334.767 142.038 334.939 142.392 335.032 142.803C335.126 143.214 335.174 143.815 335.174 144.608V151.178H329.916C328.93 151.178 328.266 151.144 327.924 151.074C327.132 150.922 326.524 150.584 326.104 150.062C325.683 149.542 325.472 148.87 325.472 148.05C325.472 147.444 325.588 146.9 325.818 146.416C326.047 145.934 326.367 145.563 326.776 145.306C327.278 144.994 328.154 144.836 329.406 144.836H333.108Z" fill="black" fill-opacity="0.15"/>
<rect width="7.259" height="10.678" fill="black" fill-opacity="0" transform="translate(337.26 151.179) scale(1.33333 -1.33333)"/>
<path d="M344.873 149.541V142.416H342.652C341.956 142.416 341.407 142.497 341.004 142.657C340.6 142.817 340.267 143.088 340.003 143.469C339.599 144.055 339.397 144.883 339.397 145.953C339.397 147.267 339.617 148.193 340.055 148.733C340.493 149.272 341.244 149.541 342.308 149.541H344.873ZM344.873 140.78V136.941H346.939V151.179H342.317C341.407 151.179 340.681 151.109 340.144 150.969C339.604 150.831 339.144 150.595 338.761 150.26C338.295 149.857 337.929 149.292 337.661 148.567C337.393 147.84 337.26 147.044 337.26 146.181C337.26 145.097 337.461 144.103 337.864 143.199C338.24 142.351 338.793 141.736 339.528 141.352C340.261 140.971 341.247 140.78 342.485 140.78H344.873Z" fill="black" fill-opacity="0.15"/>
<rect width="6.329" height="10.787" fill="black" fill-opacity="0" transform="translate(349.171 151.179) scale(1.33333 -1.33333)"/>
<path d="M354.333 137.776L352.884 139.497H351.059L353.373 136.796H355.293L357.609 139.497H355.783L354.333 137.776ZM357.609 145.025V146.663H351.371C351.357 147.601 351.597 148.328 352.091 148.843C352.341 149.107 352.651 149.289 353.02 149.389C353.388 149.491 353.92 149.541 354.615 149.541H357.609V151.179H354.052C353.163 151.179 352.471 151.111 351.976 150.975C351.483 150.84 351.041 150.595 350.652 150.24C349.664 149.351 349.171 147.997 349.171 146.183C349.171 143.971 349.921 142.411 351.424 141.5C352.209 141.02 353.273 140.78 354.615 140.78H357.609V142.416H354.917C354.195 142.416 353.635 142.472 353.239 142.584C352.841 142.695 352.501 142.891 352.216 143.168C351.785 143.592 351.503 144.211 351.371 145.025H357.609Z" fill="black" fill-opacity="0.15"/>
<rect width="10.506" height="7.799" fill="black" fill-opacity="0" transform="translate(360.05 151.178) scale(1.33333 -1.33333)"/>
<path d="M360.05 140.78H369.239C370.504 140.78 371.358 140.822 371.8 140.91C372.24 140.997 372.654 141.2 373.035 141.521C373.418 141.848 373.683 142.245 373.832 142.714C373.983 143.184 374.058 143.864 374.058 144.753V151.178H371.992V144.753C371.992 143.884 371.816 143.277 371.466 142.933C371.114 142.589 370.5 142.417 369.624 142.417H368.019V151.178H365.954V142.417H362.115V151.178H360.05V140.78Z" fill="black" fill-opacity="0.15"/>
<path d="M376.863 140.78H378.928V151.179H376.863V140.78ZM376.863 136.942H378.928V139.1H376.863V136.942Z" fill="black" fill-opacity="0.15"/>
<rect width="6.43" height="7.799" fill="black" fill-opacity="0" transform="translate(381.161 151.178) scale(1.33333 -1.33333)"/>
<path d="M389.734 140.78V142.417H386.429C385.767 142.417 385.242 142.493 384.853 142.646C384.463 142.8 384.147 143.049 383.903 143.397C383.501 143.988 383.299 144.854 383.299 145.994C383.299 147.358 383.587 148.328 384.165 148.905C384.589 149.329 385.343 149.541 386.429 149.541H389.734V151.178H386.429C385.343 151.178 384.498 151.085 383.894 150.897C382.899 150.59 382.155 149.864 381.661 148.717C381.327 147.93 381.161 147.084 381.161 146.172C381.161 144.489 381.617 143.15 382.527 142.156C382.993 141.656 383.519 141.301 384.107 141.092C384.694 140.884 385.469 140.78 386.429 140.78H389.734Z" fill="black" fill-opacity="0.15"/>
<rect width="7.275" height="7.798" fill="black" fill-opacity="0" transform="translate(391.309 151.178) scale(1.33333 -1.33333)"/>
<path d="M398.944 146.475H395.492C394.893 146.475 394.448 146.538 394.156 146.663C393.684 146.871 393.447 147.323 393.447 148.018C393.447 148.574 393.601 148.967 393.911 149.196C394.221 149.426 394.748 149.542 395.492 149.542H398.944V146.475ZM398.944 144.836C398.944 143.78 398.809 143.112 398.543 142.835C398.275 142.556 397.627 142.416 396.597 142.416H391.705V140.78H397.045C397.971 140.78 398.68 140.851 399.173 140.994C399.667 141.135 400.06 141.384 400.352 141.739C400.603 142.038 400.775 142.392 400.868 142.803C400.963 143.214 401.009 143.815 401.009 144.608V151.178H395.752C394.765 151.178 394.101 151.144 393.76 151.074C392.968 150.922 392.361 150.584 391.94 150.062C391.519 149.542 391.309 148.87 391.309 148.05C391.309 147.444 391.424 146.9 391.653 146.416C391.883 145.934 392.203 145.563 392.612 145.306C393.113 144.994 393.989 144.836 395.241 144.836H398.944Z" fill="black" fill-opacity="0.15"/>
<rect width="7.259" height="10.678" fill="black" fill-opacity="0" transform="translate(408.436 151.179) scale(1.33333 -1.33333)"/>
<path d="M416.05 149.541V142.416H413.828C413.132 142.416 412.583 142.497 412.18 142.657C411.776 142.817 411.443 143.088 411.179 143.469C410.775 144.055 410.574 144.883 410.574 145.953C410.574 147.267 410.794 148.193 411.231 148.733C411.67 149.272 412.42 149.541 413.484 149.541H416.05ZM416.05 140.78V136.941H418.115V151.179H413.494C412.583 151.179 411.858 151.109 411.32 150.969C410.78 150.831 410.32 150.595 409.938 150.26C409.471 149.857 409.106 149.292 408.838 148.567C408.57 147.84 408.436 147.044 408.436 146.181C408.436 145.097 408.638 144.103 409.04 143.199C409.416 142.351 409.97 141.736 410.704 141.352C411.438 140.971 412.423 140.78 413.662 140.78H416.05Z" fill="black" fill-opacity="0.15"/>
<rect width="6.329" height="7.799" fill="black" fill-opacity="0" transform="translate(420.347 151.178) scale(1.33333 -1.33333)"/>
<path d="M428.785 145.025V146.663H422.548C422.535 147.602 422.775 148.329 423.268 148.842C423.517 149.107 423.828 149.289 424.196 149.389C424.564 149.491 425.096 149.542 425.792 149.542H428.785V151.178H425.229C424.339 151.178 423.647 151.11 423.153 150.975C422.659 150.839 422.217 150.595 421.828 150.239C420.841 149.35 420.347 147.997 420.347 146.182C420.347 143.971 421.099 142.41 422.6 141.499C423.385 141.019 424.451 140.779 425.792 140.779H428.785V142.417H426.095C425.371 142.417 424.812 142.473 424.415 142.585C424.019 142.695 423.677 142.89 423.393 143.167C422.961 143.593 422.68 144.211 422.548 145.025H428.785Z" fill="black" fill-opacity="0.15"/>
<rect width="9.45" height="10.678" fill="black" fill-opacity="0" transform="translate(239.641 176.812) scale(1.33333 -1.33333)"/>
<path d="M241.916 164.389V174.997H245.545C247.159 174.997 248.288 174.528 248.936 173.589C249.527 172.734 249.821 171.492 249.821 169.865C249.821 168.024 249.481 166.625 248.8 165.673C248.472 165.213 248.047 164.885 247.523 164.688C246.997 164.488 246.285 164.389 245.388 164.389H241.916ZM239.641 162.574H245.108C246.616 162.574 247.721 162.682 248.424 162.898C249.732 163.308 250.749 164.229 251.48 165.662C251.988 166.67 252.241 167.972 252.241 169.564C252.241 172.741 251.38 174.876 249.655 175.968C249.127 176.301 248.571 176.526 247.987 176.64C247.403 176.754 246.512 176.812 245.316 176.812H239.641V162.574Z" fill="black" fill-opacity="0.15"/>
<rect width="6.329" height="7.8" fill="black" fill-opacity="0" transform="translate(253.712 176.812) scale(1.33333 -1.33333)"/>
<path d="M262.151 170.659V172.296H255.913C255.9 173.235 256.14 173.961 256.633 174.475C256.884 174.74 257.193 174.923 257.561 175.023C257.929 175.124 258.461 175.175 259.157 175.175H262.151V176.812H258.595C257.704 176.812 257.012 176.744 256.519 176.609C256.025 176.472 255.583 176.228 255.193 175.873C254.207 174.983 253.712 173.631 253.712 171.816C253.712 169.605 254.464 168.044 255.965 167.132C256.752 166.653 257.816 166.412 259.157 166.412H262.151V168.051H259.46C258.736 168.051 258.177 168.107 257.78 168.217C257.384 168.329 257.043 168.523 256.759 168.801C256.327 169.227 256.045 169.845 255.913 170.659H262.151Z" fill="black" fill-opacity="0.15"/>
<rect width="7.142" height="7.8" fill="black" fill-opacity="0" transform="translate(263.977 176.813) scale(1.33333 -1.33333)"/>
<path d="M273.061 166.413V168.051H268.378C267.662 168.051 267.197 168.066 266.985 168.098C266.773 168.129 266.605 168.211 266.479 168.342C266.235 168.586 266.114 168.979 266.114 169.521C266.114 170.043 266.245 170.385 266.505 170.543C266.766 170.703 267.325 170.783 268.179 170.783H269.587C270.734 170.797 271.441 170.818 271.705 170.846C271.969 170.874 272.219 170.961 272.455 171.107C273.151 171.538 273.499 172.403 273.499 173.705C273.499 175.129 273.054 176.065 272.163 176.509C271.921 176.635 271.635 176.717 271.309 176.755C270.982 176.793 270.407 176.813 269.587 176.813H264.09V175.174H269.087C270.046 175.174 270.634 175.129 270.85 175.039C271.19 174.893 271.361 174.503 271.361 173.871C271.361 173.203 271.149 172.818 270.725 172.714C270.55 172.663 270.05 172.641 269.222 172.641H268.378C267.265 172.641 266.51 172.607 266.114 172.541C265.718 172.475 265.374 172.321 265.082 172.077C264.345 171.486 263.977 170.623 263.977 169.49C263.977 168.885 264.098 168.346 264.341 167.874C264.585 167.401 264.918 167.053 265.342 166.83C265.87 166.551 266.702 166.413 267.835 166.413H273.061Z" fill="black" fill-opacity="0.15"/>
<rect width="6.329" height="7.8" fill="black" fill-opacity="0" transform="translate(275.104 176.812) scale(1.33333 -1.33333)"/>
<path d="M283.543 170.659V172.296H277.306C277.292 173.235 277.532 173.961 278.026 174.475C278.276 174.74 278.586 174.923 278.954 175.023C279.322 175.124 279.854 175.175 280.55 175.175H283.543V176.812H279.987C279.096 176.812 278.404 176.744 277.911 176.609C277.418 176.472 276.975 176.228 276.586 175.873C275.599 174.983 275.104 173.631 275.104 171.816C275.104 169.605 275.856 168.044 277.358 167.132C278.144 166.653 279.208 166.412 280.55 166.412H283.543V168.051H280.852C280.128 168.051 279.57 168.107 279.172 168.217C278.776 168.329 278.435 168.523 278.151 168.801C277.719 169.227 277.438 169.845 277.306 170.659H283.543Z" fill="black" fill-opacity="0.15"/>
<rect width="6.759" height="7.8" fill="black" fill-opacity="0" transform="translate(285.984 176.813) scale(1.33333 -1.33333)"/>
<path d="M285.984 166.413H290.792C291.704 166.413 292.431 166.511 292.979 166.711C293.523 166.909 293.963 167.237 294.297 167.697C294.749 168.279 294.983 169.254 294.996 170.617V176.813H292.931V170.835C292.931 169.793 292.751 169.067 292.393 168.662C292.035 168.254 291.395 168.051 290.469 168.051H288.049V176.813H285.984V166.413Z" fill="black" fill-opacity="0.15"/>
<rect width="8.253" height="7.8" fill="black" fill-opacity="0" transform="translate(295.944 176.813) scale(1.33333 -1.33333)"/>
<path d="M301.379 174.131L304.779 166.413H306.948L302.14 176.813H300.482L295.944 166.413H298.198L301.379 174.131Z" fill="black" fill-opacity="0.15"/>
<rect width="7.963" height="7.971" fill="black" fill-opacity="0" transform="translate(307.325 176.926) scale(1.33333 -1.33333)"/>
<path d="M312.623 168.009C311.607 168.009 310.827 168.325 310.281 168.958C309.735 169.592 309.462 170.49 309.462 171.66C309.462 172.772 309.685 173.606 310.13 174.162C310.694 174.866 311.511 175.216 312.581 175.216C314.73 175.216 315.805 174.048 315.805 171.712C315.805 170.522 315.531 169.612 314.986 168.98C314.439 168.346 313.651 168.024 312.623 168.009ZM312.749 166.298C314.417 166.298 315.714 166.778 316.639 167.738C317.509 168.636 317.942 169.942 317.942 171.66C317.942 173.26 317.501 174.525 316.618 175.456C315.679 176.436 314.351 176.926 312.634 176.926C310.826 176.926 309.457 176.425 308.523 175.425C307.725 174.577 307.325 173.368 307.325 171.796C307.325 170.141 307.773 168.813 308.67 167.812C309.561 166.816 310.919 166.313 312.749 166.298Z" fill="black" fill-opacity="0.15"/>
<path d="M322.24 176.812H320.175V162.574H322.24V176.812Z" fill="black" fill-opacity="0.15"/>
<rect width="8.253" height="7.8" fill="black" fill-opacity="0" transform="translate(323.793 176.813) scale(1.33333 -1.33333)"/>
<path d="M329.228 174.131L332.628 166.413H334.797L329.989 176.813H328.331L323.793 166.413H326.047L329.228 174.131Z" fill="black" fill-opacity="0.15"/>
<path d="M336.435 166.412H338.5V176.812H336.435V166.412ZM336.435 162.574H338.5V164.734H336.435V162.574Z" fill="black" fill-opacity="0.15"/>
<rect width="10.506" height="7.8" fill="black" fill-opacity="0" transform="translate(341.463 176.813) scale(1.33333 -1.33333)"/>
<path d="M341.463 166.413H350.652C351.918 166.413 352.77 166.457 353.214 166.543C353.654 166.63 354.066 166.833 354.448 167.154C354.831 167.481 355.096 167.879 355.246 168.347C355.395 168.818 355.471 169.497 355.471 170.386V176.813H353.406V170.386C353.406 169.518 353.23 168.911 352.879 168.567C352.527 168.222 351.914 168.051 351.038 168.051H349.432V176.813H347.366V168.051H343.528V176.813H341.463V166.413Z" fill="black" fill-opacity="0.15"/>
<rect width="6.329" height="7.8" fill="black" fill-opacity="0" transform="translate(357.546 176.812) scale(1.33333 -1.33333)"/>
<path d="M365.985 170.659V172.296H359.747C359.734 173.235 359.973 173.961 360.467 174.475C360.717 174.74 361.026 174.923 361.395 175.023C361.763 175.124 362.295 175.175 362.991 175.175H365.985V176.812H362.429C361.538 176.812 360.846 176.744 360.351 176.609C359.858 176.472 359.417 176.228 359.027 175.873C358.041 174.983 357.546 173.631 357.546 171.816C357.546 169.605 358.297 168.044 359.799 167.132C360.585 166.653 361.649 166.412 362.991 166.412H365.985V168.051H363.293C362.57 168.051 362.011 168.107 361.614 168.217C361.218 168.329 360.877 168.523 360.593 168.801C360.161 169.227 359.879 169.845 359.747 170.659H365.985Z" fill="black" fill-opacity="0.15"/>
<rect width="6.759" height="7.8" fill="black" fill-opacity="0" transform="translate(368.425 176.813) scale(1.33333 -1.33333)"/>
<path d="M368.425 166.413H373.233C374.145 166.413 374.872 166.511 375.419 166.711C375.964 166.909 376.404 167.237 376.737 167.697C377.191 168.279 377.423 169.254 377.437 170.617V176.813H375.372V170.835C375.372 169.793 375.192 169.067 374.835 168.662C374.476 168.254 373.835 168.051 372.911 168.051H370.491V176.813H368.425V166.413Z" fill="black" fill-opacity="0.15"/>
<rect width="5.311" height="10.679" fill="black" fill-opacity="0" transform="translate(379.137 176.813) scale(1.33333 -1.33333)"/>
<path d="M381.119 166.413V162.574H383.184V166.413H386.219V168.051H383.184V173.515C383.184 173.961 383.204 174.277 383.247 174.465C383.288 174.654 383.372 174.795 383.497 174.893C383.712 175.081 384.213 175.174 384.999 175.174H386.219V176.813H384.216C383.535 176.813 383.029 176.771 382.7 176.687C382.368 176.605 382.079 176.441 381.828 176.197C381.564 175.946 381.38 175.637 381.276 175.269C381.171 174.899 381.119 174.375 381.119 173.694V168.051H379.137V166.413H381.119Z" fill="black" fill-opacity="0.15"/>
<rect width="7.964" height="7.971" fill="black" fill-opacity="0" transform="translate(387.189 176.926) scale(1.33333 -1.33333)"/>
<path d="M392.488 168.009C391.473 168.009 390.692 168.325 390.146 168.958C389.6 169.592 389.328 170.49 389.328 171.66C389.328 172.772 389.549 173.606 389.994 174.162C390.558 174.866 391.376 175.216 392.446 175.216C394.594 175.216 395.669 174.048 395.669 171.712C395.669 170.522 395.396 169.612 394.85 168.98C394.304 168.346 393.517 168.024 392.488 168.009ZM392.613 166.298C394.282 166.298 395.578 166.778 396.504 167.738C397.373 168.636 397.808 169.942 397.808 171.66C397.808 173.26 397.365 174.525 396.482 175.456C395.544 176.436 394.216 176.926 392.498 176.926C390.69 176.926 389.321 176.425 388.389 175.425C387.589 174.577 387.189 173.368 387.189 171.796C387.189 170.141 387.637 168.813 388.534 167.812C389.425 166.816 390.784 166.313 392.613 166.298Z" fill="black" fill-opacity="0.15"/>
<rect width="7.26" height="10.679" fill="black" fill-opacity="0" transform="translate(404.649 176.813) scale(1.33333 -1.33333)"/>
<path d="M412.264 175.174V168.05H410.041C409.346 168.05 408.797 168.13 408.394 168.29C407.99 168.45 407.657 168.721 407.393 169.104C406.989 169.689 406.788 170.516 406.788 171.588C406.788 172.901 407.006 173.826 407.445 174.366C407.882 174.905 408.633 175.174 409.698 175.174H412.264ZM412.264 166.413V162.574H414.329V176.813H409.708C408.797 176.813 408.072 176.742 407.534 176.604C406.994 176.465 406.534 176.228 406.152 175.894C405.685 175.49 405.318 174.925 405.052 174.2C404.784 173.473 404.649 172.678 404.649 171.816C404.649 170.732 404.85 169.737 405.254 168.833C405.629 167.984 406.184 167.369 406.917 166.986C407.652 166.604 408.637 166.413 409.874 166.413H412.264Z" fill="black" fill-opacity="0.15"/>
<rect width="6.329" height="7.8" fill="black" fill-opacity="0" transform="translate(416.56 176.812) scale(1.33333 -1.33333)"/>
<path d="M424.999 170.659V172.296H418.761C418.748 173.235 418.988 173.961 419.481 174.475C419.732 174.74 420.041 174.923 420.409 175.023C420.777 175.124 421.309 175.175 422.005 175.175H424.999V176.812H421.443C420.552 176.812 419.86 176.744 419.367 176.609C418.873 176.472 418.431 176.228 418.041 175.873C417.055 174.983 416.56 173.631 416.56 171.816C416.56 169.605 417.312 168.044 418.813 167.132C419.6 166.653 420.664 166.412 422.005 166.412H424.999V168.051H422.308C421.584 168.051 421.025 168.107 420.629 168.217C420.232 168.329 419.891 168.523 419.607 168.801C419.175 169.227 418.893 169.845 418.761 170.659H424.999Z" fill="black" fill-opacity="0.15"/>
<rect width="9.043" height="10.679" fill="black" fill-opacity="0" transform="translate(432.071 176.812) scale(1.33333 -1.33333)"/>
<path d="M432.582 176.812V174.998H438.735C439.682 174.998 440.359 174.879 440.77 174.643C441.395 174.282 441.709 173.666 441.709 172.796C441.709 171.691 441.302 171.007 440.487 170.742C440.126 170.623 439.399 170.564 438.307 170.564H437.119C435.478 170.564 434.303 170.339 433.594 169.887C432.578 169.247 432.071 168.235 432.071 166.851C432.071 165.94 432.303 165.134 432.77 164.431C433.221 163.743 433.807 163.262 434.526 162.987C435.247 162.712 436.267 162.574 437.589 162.574H443.45V164.39H437.589C436.97 164.39 436.495 164.419 436.165 164.478C435.834 164.538 435.547 164.643 435.305 164.796C434.762 165.144 434.49 165.722 434.49 166.527C434.49 167.236 434.729 167.744 435.205 168.051C435.681 168.356 436.475 168.508 437.589 168.508H438.443C439.661 168.508 440.567 168.564 441.166 168.676C441.763 168.787 442.258 168.99 442.647 169.282C443.113 169.636 443.475 170.116 443.738 170.722C443.998 171.326 444.129 171.994 444.129 172.724C444.129 174.406 443.471 175.588 442.157 176.27C441.747 176.478 441.282 176.62 440.763 176.698C440.246 176.774 439.473 176.812 438.443 176.812H432.582Z" fill="black" fill-opacity="0.15"/>
<rect width="7.964" height="7.971" fill="black" fill-opacity="0" transform="translate(445.651 176.926) scale(1.33333 -1.33333)"/>
<path d="M450.949 168.009C449.935 168.009 449.153 168.325 448.608 168.958C448.061 169.592 447.789 170.49 447.789 171.66C447.789 172.772 448.012 173.606 448.456 174.162C449.02 174.866 449.837 175.216 450.908 175.216C453.057 175.216 454.131 174.048 454.131 171.712C454.131 170.522 453.857 169.612 453.312 168.98C452.765 168.346 451.979 168.024 450.949 168.009ZM451.075 166.298C452.744 166.298 454.04 166.778 454.965 167.738C455.835 168.636 456.269 169.942 456.269 171.66C456.269 173.26 455.828 174.525 454.945 175.456C454.005 176.436 452.677 176.926 450.96 176.926C449.152 176.926 447.783 176.425 446.851 175.425C446.051 174.577 445.651 173.368 445.651 171.796C445.651 170.141 446.1 168.813 446.997 167.812C447.887 166.816 449.247 166.313 451.075 166.298Z" fill="black" fill-opacity="0.15"/>
<rect width="5.514" height="10.678" fill="black" fill-opacity="0" transform="translate(457.428 176.812) scale(1.33333 -1.33333)"/>
<path d="M459.263 168.051H457.428V166.412H459.263V165.955C459.263 164.757 459.527 163.896 460.056 163.367C460.584 162.839 461.447 162.575 462.643 162.575H464.78V164.212H462.913C462.281 164.212 461.857 164.32 461.645 164.535C461.433 164.751 461.328 165.187 461.328 165.84V166.412H464.603V168.051H461.328V176.812H459.263V168.051Z" fill="black" fill-opacity="0.15"/>
<rect width="5.311" height="10.679" fill="black" fill-opacity="0" transform="translate(465.667 176.813) scale(1.33333 -1.33333)"/>
<path d="M467.649 166.413V162.574H469.714V166.413H472.749V168.051H469.714V173.515C469.714 173.961 469.734 174.277 469.777 174.465C469.818 174.654 469.902 174.795 470.027 174.893C470.242 175.081 470.743 175.174 471.529 175.174H472.749V176.813H470.746C470.065 176.813 469.559 176.771 469.23 176.687C468.898 176.605 468.609 176.441 468.358 176.197C468.094 175.946 467.91 175.637 467.805 175.269C467.701 174.899 467.649 174.375 467.649 173.694V168.051H465.667V166.413H467.649Z" fill="black" fill-opacity="0.15"/>
<rect width="10.506" height="7.8" fill="black" fill-opacity="0" transform="translate(474.668 176.813) scale(1.33333 -1.33333)"/>
<path d="M480.707 175.174V166.413H482.772V175.174H486.611V166.413H488.676V176.813H478.996C477.891 176.813 477.116 176.729 476.671 176.562C475.975 176.298 475.467 175.885 475.148 175.325C474.828 174.765 474.668 174.01 474.668 173.057L474.679 172.14V166.413H476.743V172.378C476.743 173.089 476.76 173.57 476.79 173.824C476.822 174.078 476.896 174.296 477.015 174.476C477.168 174.733 477.395 174.914 477.699 175.018C478 175.122 478.434 175.174 478.996 175.174H480.707Z" fill="black" fill-opacity="0.15"/>
<rect width="7.275" height="7.799" fill="black" fill-opacity="0" transform="translate(490.877 176.812) scale(1.33333 -1.33333)"/>
<path d="M498.512 172.108H495.06C494.461 172.108 494.016 172.171 493.724 172.296C493.252 172.504 493.015 172.957 493.015 173.652C493.015 174.208 493.169 174.601 493.479 174.831C493.789 175.06 494.316 175.175 495.06 175.175H498.512V172.108ZM498.512 170.469C498.512 169.413 498.377 168.747 498.111 168.468C497.843 168.191 497.195 168.051 496.165 168.051H491.273V166.413H496.613C497.539 166.413 498.248 166.484 498.741 166.628C499.235 166.769 499.628 167.019 499.92 167.372C500.171 167.672 500.343 168.025 500.436 168.436C500.531 168.847 500.577 169.448 500.577 170.241V176.812H495.32C494.333 176.812 493.669 176.777 493.328 176.708C492.536 176.555 491.929 176.217 491.509 175.696C491.087 175.175 490.877 174.504 490.877 173.684C490.877 173.079 490.992 172.533 491.221 172.051C491.451 171.568 491.771 171.196 492.18 170.94C492.681 170.628 493.557 170.469 494.809 170.469H498.512Z" fill="black" fill-opacity="0.15"/>
<rect width="5.03" height="7.8" fill="black" fill-opacity="0" transform="translate(503.393 176.813) scale(1.33333 -1.33333)"/>
<path d="M503.393 166.413H506.063C506.919 166.413 507.583 166.473 508.056 166.591C508.529 166.709 508.928 166.914 509.255 167.206C509.568 167.491 509.787 167.845 509.912 168.27C510.037 168.694 510.1 169.302 510.1 170.095V171.107H508.149V170.095C508.149 169.337 508.019 168.823 507.759 168.551C507.497 168.279 507.005 168.145 506.283 168.145H505.459V176.813H503.393V166.413Z" fill="black" fill-opacity="0.15"/>
<rect width="6.329" height="7.8" fill="black" fill-opacity="0" transform="translate(511.403 176.812) scale(1.33333 -1.33333)"/>
<path d="M519.842 170.659V172.296H513.605C513.591 173.235 513.83 173.961 514.325 174.475C514.574 174.74 514.885 174.923 515.253 175.023C515.621 175.124 516.153 175.175 516.849 175.175H519.842V176.812H516.286C515.395 176.812 514.703 176.744 514.21 176.609C513.715 176.472 513.274 176.228 512.885 175.873C511.898 174.983 511.403 173.631 511.403 171.816C511.403 169.605 512.154 168.044 513.657 167.132C514.442 166.653 515.507 166.412 516.849 166.412H519.842V168.051H517.15C516.427 168.051 515.869 168.107 515.471 168.217C515.075 168.329 514.734 168.523 514.45 168.801C514.018 169.227 513.737 169.845 513.605 170.659H519.842Z" fill="black" fill-opacity="0.15"/>
<path d="M519.059 121.766H172.244V118.204H519.059V121.766Z" fill="black" fill-opacity="0.15"/>
<rect width="47.18" height="57.073" fill="black" fill-opacity="0" transform="translate(120.052 120.133) scale(1.33333 -1.33333)"/>
<path d="M173.302 120.133L171.187 119.837L180.539 52.874L120.052 46.1593L120.288 44.0353L182.959 50.994L173.302 120.133Z" fill="black" fill-opacity="0.15"/>
<rect width="92.122" height="119.28" fill="black" fill-opacity="0" transform="translate(50.993 201.947) scale(1.33333 -1.33333)"/>
<path d="M62.629 169.591L129.198 199.183L170.666 120.684L106.874 104.427L118.629 47.2856L53.269 87.1043L62.629 169.591ZM130.154 201.947L60.645 171.046L50.993 85.9883L121.712 42.9069L109.377 102.859L173.822 119.286L130.154 201.947Z" fill="black" fill-opacity="0.15"/>
<rect width="56.139" height="40.093" fill="black" fill-opacity="0" transform="translate(107.511 104.517) scale(1.33333 -1.33333)"/>
<path d="M108.739 104.517L107.511 102.769L181.135 51.0595L182.363 52.8075L108.739 104.517Z" fill="black" fill-opacity="0.15"/>
<rect width="67.258" height="14.411" fill="black" fill-opacity="0" transform="translate(18.7599 104.665) scale(1.33333 -1.33333)"/>
<path d="M107.813 104.665L52.0626 87.6412L19.1199 93.2865L18.7599 91.1812L52.2012 85.4505L108.437 102.623L107.813 104.665Z" fill="black" fill-opacity="0.15"/>
<rect width="84.893" height="135.086" fill="black" fill-opacity="0" transform="translate(17.7849 207.625) scale(1.33333 -1.33333)"/>
<path d="M62.8796 170.403L80.7409 205.326L128.377 199.645L107.61 106.249L62.8796 170.403ZM79.5156 207.625L60.7836 170.994L29.5316 144.541L17.7849 91.9582L70.5356 27.5102L120.508 44.0835L119.834 46.1102L71.2582 29.9995L20.0956 92.5075L31.4596 143.373L61.4316 168.745L108.64 101.038L130.976 201.486L79.5156 207.625Z" fill="black" fill-opacity="0.15"/>
<rect width="19.651" height="19.651" fill="black" fill-opacity="0" transform="translate(39.0305 99.6467) scale(1.33333 -1.33333)"/>
<path d="M65.2318 86.5453C65.2318 93.7813 59.3665 99.6467 52.1318 99.6467C44.8958 99.6467 39.0305 93.7813 39.0305 86.5453C39.0305 79.3107 44.8958 73.4453 52.1318 73.4453C59.3665 73.4453 65.2318 79.3107 65.2318 86.5453Z" fill="black" fill-opacity="0.15"/>
<rect width="14.258" height="14.258" fill="black" fill-opacity="0" transform="translate(172.244 61.4388) scale(1.33333 -1.33333)"/>
<path d="M191.255 51.9335C191.255 57.1841 186.999 61.4388 181.749 61.4388C176.5 61.4388 172.244 57.1841 172.244 51.9335C172.244 46.6828 176.5 42.4281 181.749 42.4281C186.999 42.4281 191.255 46.6828 191.255 51.9335Z" fill="black" fill-opacity="0.15"/>
<rect width="14.258" height="14.258" fill="black" fill-opacity="0" transform="translate(120.171 210.07) scale(1.33333 -1.33333)"/>
<path d="M139.182 200.565C139.182 205.816 134.926 210.07 129.676 210.07C124.427 210.07 120.171 205.816 120.171 200.565C120.171 195.316 124.427 191.06 129.676 191.06C134.926 191.06 139.182 195.316 139.182 200.565Z" fill="black" fill-opacity="0.15"/>
<rect width="32.231" height="32.231" fill="black" fill-opacity="0" transform="translate(98.6836 66.5841) scale(1.33333 -1.33333)"/>
<path d="M141.658 45.0961C141.658 56.9641 132.038 66.5841 120.17 66.5841C108.304 66.5841 98.6836 56.9641 98.6836 45.0961C98.6836 33.2295 108.304 23.6095 120.17 23.6095C132.038 23.6095 141.658 33.2295 141.658 45.0961Z" fill="black" fill-opacity="0.15"/>
<rect width="11.189" height="11.191" fill="black" fill-opacity="0" transform="translate(23.0365 151.417) scale(1.33333 -1.33333)"/>
<path d="M37.9552 143.956C37.9552 148.077 34.6152 151.417 30.4952 151.417C26.3752 151.417 23.0365 148.077 23.0365 143.956C23.0365 139.836 26.3752 136.496 30.4952 136.496C34.6152 136.496 37.9552 139.836 37.9552 143.956Z" fill="black" fill-opacity="0.15"/>
<rect width="10.855" height="10.856" fill="black" fill-opacity="0" transform="translate(100.889 110.88) scale(1.33333 -1.33333)"/>
<path d="M115.362 103.643C115.362 107.64 112.122 110.88 108.125 110.88C104.129 110.88 100.889 107.64 100.889 103.643C100.889 99.6457 104.129 96.4057 108.125 96.4057C112.122 96.4057 115.362 99.6457 115.362 103.643Z" fill="black" fill-opacity="0.15"/>
<rect width="54.267" height="54.267" fill="black" fill-opacity="0" transform="translate(136.066 156.163) scale(1.33333 -1.33333)"/>
<path d="M208.422 119.985C208.422 139.965 192.225 156.163 172.245 156.163C152.263 156.163 136.066 139.965 136.066 119.985C136.066 100.005 152.263 83.8068 172.245 83.8068C192.225 83.8068 208.422 100.005 208.422 119.985Z" fill="black" fill-opacity="0.15"/>
</svg>
